<svg width="36" height="36" viewBox="0 0 36 36" fill="none" xmlns="http://www.w3.org/2000/svg">
<path d="M0 9C0 6.20435 0 4.80653 0.456723 3.7039C1.06569 2.23373 2.23373 1.06569 3.7039 0.456723C4.80653 0 6.20435 0 9 0H27C29.7956 0 31.1935 0 32.2961 0.456723C33.7663 1.06569 34.9343 2.23373 35.5433 3.7039C36 4.80653 36 6.20435 36 9V27C36 29.7956 36 31.1935 35.5433 32.2961C34.9343 33.7663 33.7663 34.9343 32.2961 35.5433C31.1935 36 29.7956 36 27 36H9C6.20435 36 4.80653 36 3.7039 35.5433C2.23373 34.9343 1.06569 33.7663 0.456723 32.2961C0 31.1935 0 29.7956 0 27V9Z" fill="white"/>
<path d="M24.194 18.817C24.2273 18.5503 24.2523 18.2837 24.2523 18.0003C24.2523 17.717 24.2273 17.4503 24.194 17.1837L25.9523 15.8087C26.1106 15.6837 26.1523 15.4587 26.0523 15.2753L24.3856 12.392C24.3106 12.2587 24.169 12.1837 24.019 12.1837C23.969 12.1837 23.919 12.192 23.8773 12.2087L21.8023 13.042C21.369 12.7087 20.9023 12.4337 20.394 12.2253L20.0773 10.017C20.0523 9.81699 19.8773 9.66699 19.669 9.66699H16.3356C16.1273 9.66699 15.9523 9.81699 15.9273 10.017L15.6106 12.2253C15.1023 12.4337 14.6356 12.717 14.2023 13.042L12.1273 12.2087C12.0773 12.192 12.0273 12.1837 11.9773 12.1837C11.8356 12.1837 11.694 12.2587 11.619 12.392L9.95231 15.2753C9.84397 15.4587 9.89397 15.6837 10.0523 15.8087L11.8106 17.1837C11.7773 17.4503 11.7523 17.7253 11.7523 18.0003C11.7523 18.2753 11.7773 18.5503 11.8106 18.817L10.0523 20.192C9.89397 20.317 9.85231 20.542 9.95231 20.7253L11.619 23.6087C11.694 23.742 11.8356 23.817 11.9856 23.817C12.0356 23.817 12.0856 23.8087 12.1273 23.792L14.2023 22.9587C14.6356 23.292 15.1023 23.567 15.6106 23.7753L15.9273 25.9837C15.9523 26.1837 16.1273 26.3337 16.3356 26.3337H19.669C19.8773 26.3337 20.0523 26.1837 20.0773 25.9837L20.394 23.7753C20.9023 23.567 21.369 23.2837 21.8023 22.9587L23.8773 23.792C23.9273 23.8087 23.9773 23.817 24.0273 23.817C24.169 23.817 24.3106 23.742 24.3856 23.6087L26.0523 20.7253C26.1523 20.542 26.1106 20.317 25.9523 20.192L24.194 18.817ZM22.544 17.392C22.5773 17.6503 22.5856 17.8253 22.5856 18.0003C22.5856 18.1753 22.569 18.3587 22.544 18.6087L22.4273 19.5503L23.169 20.1337L24.069 20.8337L23.4856 21.842L22.4273 21.417L21.5606 21.067L20.8106 21.6337C20.4523 21.9003 20.1106 22.1003 19.769 22.242L18.8856 22.6003L18.7523 23.542L18.5856 24.667H17.419L17.1273 22.6003L16.244 22.242C15.8856 22.092 15.5523 21.9003 15.219 21.6503L14.4606 21.067L13.5773 21.4253L12.519 21.8503L11.9356 20.842L12.8356 20.142L13.5773 19.5587L13.4606 18.617C13.4356 18.3587 13.419 18.167 13.419 18.0003C13.419 17.8337 13.4356 17.642 13.4606 17.392L13.5773 16.4503L12.8356 15.867L11.9356 15.167L12.519 14.1587L13.5773 14.5837L14.444 14.9337L15.194 14.367C15.5523 14.1003 15.894 13.9003 16.2356 13.7587L17.119 13.4003L17.2523 12.4587L17.419 11.3337H18.5773L18.869 13.4003L19.7523 13.7587C20.1106 13.9087 20.444 14.1003 20.7773 14.3503L21.5356 14.9337L22.419 14.5753L23.4773 14.1503L24.0606 15.1587L23.169 15.867L22.4273 16.4503L22.544 17.392ZM18.0023 14.667C16.1606 14.667 14.669 16.1587 14.669 18.0003C14.669 19.842 16.1606 21.3337 18.0023 21.3337C19.844 21.3337 21.3356 19.842 21.3356 18.0003C21.3356 16.1587 19.844 14.667 18.0023 14.667ZM18.0023 19.667C17.0856 19.667 16.3356 18.917 16.3356 18.0003C16.3356 17.0837 17.0856 16.3337 18.0023 16.3337C18.919 16.3337 19.669 17.0837 19.669 18.0003C19.669 18.917 18.919 19.667 18.0023 19.667Z" fill="#323B49"/>
</svg>
