<svg
        xmlns="http://www.w3.org/2000/svg"
        width="70"
        height="70"
        viewBox="0 0 70 70"
        fill="none"
>
    <path
            fill-rule="evenodd"
            clip-rule="evenodd"
            d="M70 35C60.335 35 51.5851 31.0825 45.2514 24.7488V45.2512C51.5851 38.9175 60.335 35.0001 70 35C69.9999 44.665 66.0824 53.4149 59.7487 59.7486H70V70H59.7486V59.7487C53.4149 66.0824 44.665 69.9999 35 70C35.0001 60.335 38.9175 51.5851 45.2512 45.2514H24.7488C31.0825 51.5852 35 60.3351 35 70C25.3351 70 16.5851 66.0825 10.2514 59.7488V70H0V59.7486H10.2512C3.91748 53.4149 4.68274e-05 44.665 0 35C9.66494 35 18.4149 38.9175 24.7486 45.2512V24.7488C18.4149 31.0825 9.66494 35 0 35C0 25.3351 3.91744 16.5851 10.2511 10.2514H0V0H10.2514V10.2511C16.5851 3.91743 25.3351 0 35 0C35 9.66494 31.0825 18.4149 24.7488 24.7486H45.2513C38.9175 18.4149 35 9.66498 35 0C44.665 4.68274e-05 53.4149 3.91748 59.7486 10.2512V0H70V10.2514H59.7488C66.0825 16.5851 70 25.3351 70 35Z"
            fill="#00CD69"
    />

</svg>