<svg width="194" height="46" viewBox="0 0 194 46" fill="none" xmlns="http://www.w3.org/2000/svg">
<path d="M0 42.5502H18.6751L0 23.0002V42.5502Z" fill="#00CD69"/>
<path d="M37.3502 42.5502V23.0002L18.6751 42.5502H37.3502Z" fill="#00CD69"/>
<path d="M18.675 3.4502L37.3502 23.0002L37.3502 3.4502H18.675Z" fill="#00CD69"/>
<path d="M0 3.4502V23.0002L18.675 3.4502H0Z" fill="#00CD69"/>
<path d="M54.3098 12.7422V16.0081H58.1767L51.5854 32.7981H56.419L57.8691 28.6581H66.0862L67.5802 32.7981H72.5456L64.68 12.7422H54.3098ZM59.1873 25.0241L61.9557 17.3421L64.7679 25.0241H59.1873Z" fill="black"/>
<path d="M84.5413 20.1017C83.8816 18.9517 82.388 17.7097 80.0587 17.7097C76.4118 17.7097 73.5557 20.4237 73.5557 25.1617C73.5557 29.8077 76.4118 32.5218 80.0587 32.5218C82.256 32.5218 83.6626 31.4177 84.3654 30.3597V31.6938C84.3654 34.4078 82.3 35.3277 80.1906 35.3277C78.1695 35.3277 76.4558 34.7297 74.8739 33.6258V37.2597C76.324 38.1797 78.2574 38.7318 80.8935 38.7318C85.3321 38.7318 88.7152 36.3858 88.7152 31.7857V18.0777H84.5413V20.1017ZM81.2453 29.0717C79.2681 29.0717 77.9498 27.5077 77.9498 25.1617C77.9059 22.7238 79.2681 21.2517 81.2453 21.2517C82.4319 21.2517 83.5306 21.6657 84.4094 22.5397V27.8298C83.5306 28.6118 82.4319 29.0717 81.2453 29.0717Z" fill="black"/>
<path d="M98.3823 21.3435L97.7234 18.0316H91.1755V21.1136H94.0756V32.7515H98.4703V23.7355C99.0851 22.6776 100.316 21.8496 102.557 21.8496C103.216 21.8496 103.875 21.9416 104.271 22.0795V17.9856C104.007 17.8475 103.524 17.7555 103.04 17.7555C100.272 17.7555 98.7333 19.5036 98.3823 21.3435Z" fill="black"/>
<path d="M113.545 17.7097C109.018 17.7097 105.635 20.7918 105.635 25.4378C105.635 30.0838 108.974 33.1197 113.545 33.1197C118.026 33.1197 121.409 30.0838 121.409 25.4378C121.409 20.7918 118.026 17.7097 113.545 17.7097ZM113.545 29.5317C111.435 29.5317 110.029 27.8298 110.029 25.4378C110.029 22.9998 111.435 21.2977 113.545 21.2977C115.609 21.2977 117.016 22.9998 117.016 25.4378C117.016 27.8298 115.609 29.5317 113.545 29.5317Z" fill="black"/>
<path d="M132.174 17.7091C130.109 17.7091 128.746 18.7212 128 19.7791V12.0972H123.606V32.7972H127.78V30.8192C128.483 31.9691 129.933 33.1652 132.174 33.1652C135.821 33.1652 138.678 30.3131 138.678 25.4831C138.678 20.5611 135.821 17.7091 132.174 17.7091ZM131.032 29.5311C129.889 29.5311 128.834 29.1171 128 28.2891V22.5391C128.834 21.7111 129.889 21.2971 131.032 21.2971C133.053 21.2971 134.327 22.9071 134.327 25.4372C134.283 27.9211 133.009 29.5311 131.032 29.5311Z" fill="black"/>
<path d="M154.63 29.0717V23.4598C154.63 19.9178 152.037 17.7097 147.82 17.7097C145.226 17.7097 143.337 18.3077 141.931 19.1818V22.7697C143.381 21.7117 145.182 21.0678 147.072 21.0678C149.005 21.0678 150.412 21.8498 150.412 23.8278V24.1958C149.621 23.9657 148.478 23.7817 147.292 23.7817C143.865 23.7817 140.745 25.2077 140.745 28.4737C140.745 31.1417 143.03 33.0737 146.061 33.0737C148.478 33.0737 149.753 32.1997 150.544 31.1417C150.983 32.4758 152.389 33.0737 153.751 33.0737C155.157 33.0737 155.86 32.7517 156.344 32.5217V29.8537C156.168 29.8997 155.86 29.9457 155.64 29.9457C155.113 30.0378 154.63 29.7618 154.63 29.0717ZM147.424 30.0378C146.017 30.0378 145.094 29.3478 145.094 28.3357C145.094 27.0018 146.545 26.5418 147.863 26.5418C148.83 26.5418 149.665 26.6797 150.368 26.9098V28.6577C149.621 29.5317 148.698 30.0378 147.424 30.0378Z" fill="black"/>
<path d="M168.47 17.7097C166.053 17.7097 164.427 18.9977 163.592 20.1937L163.152 18.0318H156.605V21.1138H159.505V32.7517H163.9V22.5397C164.515 21.8498 165.526 21.4358 166.624 21.4358C168.382 21.4358 169.393 22.3558 169.393 24.2878V32.7978H173.786V22.9997C173.83 19.5498 171.546 17.7097 168.47 17.7097Z" fill="black"/>
<path d="M192.594 32.7512V29.7152H190.572L187.233 24.6552L191.671 18.0771H187.277L183.717 23.4132H181.785V12.0972H177.39V32.7972H181.785V26.6791H183.761L187.628 32.7972H192.638L192.594 32.7512Z" fill="black"/>
</svg>
